<svg width="275" height="260" viewBox="0 0 275 260" fill="none" xmlns="http://www.w3.org/2000/svg">
<path fill-rule="evenodd" clip-rule="evenodd" d="M98.8 250.26C83.66 255.62 68.36 258.1 52.05 255C33.87 251.55 18.09 235.99 9.17999 220.47C5.86999 214.71 3.23999 208.27 3.57999 201.63C4.37999 186.3 18.87 184.58 31.16 187.06C38.09 188.46 44.46 191.63 50.75 194.78C61.19 200 73.45 202.57 82.81 209.81C85.95 212.25 88.31 215.17 91.96 216.95C97.64 219.71 104.13 221.01 109.96 223.52C114.94 225.67 120.51 229.22 120.52 234.64C120.52 240.21 114.71 243.75 109.61 245.97C106 247.55 102.41 248.99 98.8 250.26Z" fill="url(#paint0_linear)"/>
<path fill-rule="evenodd" clip-rule="evenodd" d="M43.05 52.5C67.86 15.93 119.17 1.25001 160.76 14.99C180.82 21.63 197.62 35.44 213.12 49.78C226.79 62.41 240.05 76.04 249.38 92.29C255.75 103.38 260.31 116.67 263.53 129.08C268.34 147.66 263.97 171.6 239.95 169.85C234.32 169.44 229.44 167.41 224.17 165.64C219.91 164.2 215.73 165.06 211.3 164.36C200.16 162.6 189.43 158.49 179.28 153.69C158.6 143.89 139.7 130.57 118.43 121.99C100.99 114.96 82.38 111.33 63.58 111.3C55.65 111.28 47.31 111.84 40.22 108.29C22.74 99.54 30.6 75.96 37.13 62.69C38.86 59.16 40.84 55.75 43.05 52.5Z" fill="url(#paint1_linear)"/>
<path fill-rule="evenodd" clip-rule="evenodd" d="M237.6 58.0101C241.68 61.7101 257.73 71.8101 258.04 59.9601C258.11 57.0101 256.77 54.1401 254.95 51.9801C252.87 49.5001 250.5 48.2001 248.87 45.3001C246.88 41.8101 244.61 38.5301 242.1 35.5001C236.96 29.2001 230.96 23.3701 223.68 20.7801C218.57 18.9601 209.92 19.4201 207.5 25.9601C203.96 35.4901 219.07 37.2401 223.68 40.7101C228.06 43.9901 230.53 49.6401 234 54.1301C235.09 55.5501 236.3 56.8501 237.6 58.0101Z" fill="url(#paint2_linear)"/>
<path fill-rule="evenodd" clip-rule="evenodd" d="M162.06 46.4201C170.71 51.5201 177.2 59.1401 185.09 65.2901C198.23 75.5101 216.23 77.6001 231.29 84.7101C246.65 91.9601 258.24 103.24 263.49 119.48C270.26 140.45 270.91 165.39 265.15 186.95C258.81 210.69 243.93 226.45 222.17 236.96C200.42 247.47 176.33 252.37 152.3 253.39C149.98 253.49 147.66 253.54 145.34 253.55C93.14 253.86 23.65 235.48 5.88001 179.4C5.71001 178.89 5.56001 178.38 5.40001 177.86C3.57001 171.61 2.49001 165.17 2.19001 158.66C1.08001 135.61 5.11001 110.16 13.2 88.5401C18.63 73.9901 30.34 61.6901 42.68 52.9201C60.01 40.6001 81.16 37.4601 102.21 35.9801C117.79 34.8901 135.32 34.4901 150.06 40.4501C154.21 42.1401 158.21 44.1401 162.06 46.4201Z" fill="url(#paint3_linear)"/>
<path fill-rule="evenodd" clip-rule="evenodd" d="M64.39 81.76C64.39 81.76 117.47 152.63 130.74 158.49C144.02 164.35 160.67 163.03 162.13 169.83C163.58 176.63 134.25 165.13 138.93 175.62C143.61 186.11 161.85 198.09 161.93 208.66C162.02 219.23 132.92 185.97 132.92 185.97C132.92 185.97 160.34 216.4 151.26 217.12C142.18 217.84 118.69 188.09 118.69 188.09C118.69 188.09 144.96 227.11 136.25 223.55C127.55 219.99 46.8 126.62 34.35 116.74C21.9 106.86 64.39 81.76 64.39 81.76Z" fill="#E27B5A"/>
<path fill-rule="evenodd" clip-rule="evenodd" d="M218.79 98.96C218.79 98.96 158.25 163.55 144.41 167.92C130.56 172.28 114.16 169.14 111.97 175.73C109.77 182.33 140.19 174.13 134.38 184.04C128.58 193.96 109.14 203.86 107.89 214.35C106.65 224.84 139.23 195 139.23 195C139.23 195 108.63 222.22 117.57 223.93C126.52 225.65 153.14 198.67 153.14 198.67C153.14 198.67 122.73 234.57 131.78 231.98C140.83 229.4 231.34 145.48 244.8 137.04C258.26 128.59 218.79 98.96 218.79 98.96Z" fill="#FFCEB0"/>
<path fill-rule="evenodd" clip-rule="evenodd" d="M167.25 143.81C167.25 143.81 185.87 179.07 202.99 182.82C220.1 186.57 257.07 153.1 265.14 136.53C273.21 119.95 233.88 69.8002 225.46 62.5802C213.3 61.1002 158.62 112.38 167.25 143.81Z" fill="#FB4C47"/>
<path fill-rule="evenodd" clip-rule="evenodd" d="M51.72 47.55C51.72 47.55 112.96 107.91 110.06 123.58C107.16 139.25 83.78 158.03 64.92 164.17C46.06 170.32 4.83 145.56 4.83 127.51C1.82 96.8501 17.45 64.99 51.72 47.55Z" fill="#128E5A"/>
<defs>
<linearGradient id="paint0_linear" x1="2.83799" y1="203.707" x2="32.493" y2="253.567" gradientUnits="userSpaceOnUse">
<stop stop-color="#FFD0D0"/>
<stop offset="1" stop-color="#FFF8F8"/>
</linearGradient>
<linearGradient id="paint1_linear" x1="294.98" y1="58.442" x2="111.15" y2="55.743" gradientUnits="userSpaceOnUse">
<stop stop-color="#FFF8F8"/>
<stop offset="1" stop-color="#FFD0D0"/>
</linearGradient>
<linearGradient id="paint2_linear" x1="257.477" y1="59.3341" x2="200.78" y2="31.3261" gradientUnits="userSpaceOnUse">
<stop stop-color="#FFD0D0"/>
<stop offset="1" stop-color="#FFF7F7"/>
</linearGradient>
<linearGradient id="paint3_linear" x1="244.625" y1="229.735" x2="1.614" y2="89.0091" gradientUnits="userSpaceOnUse">
<stop stop-color="#FFCFCF"/>
<stop offset="1" stop-color="#FFF8F8"/>
</linearGradient>
</defs>
</svg>
