<svg width="555" height="587" viewBox="0 0 555 587" fill="none" xmlns="http://www.w3.org/2000/svg">
<g clip-path="url(#clip0)">
<path fill-rule="evenodd" clip-rule="evenodd" d="M201.02 564.9C169.54 576.05 137.76 581.2 103.86 574.76C66.0801 567.58 33.3001 535.24 14.7901 503C7.91015 491.02 2.43014 477.64 3.14014 463.85C4.81014 431.98 34.9101 428.42 60.4601 433.58C74.8601 436.48 88.0801 443.07 101.16 449.61C122.86 460.46 148.33 465.8 167.79 480.84C174.32 485.91 179.22 491.99 186.81 495.67C198.61 501.41 212.09 504.12 224.21 509.33C234.56 513.81 246.13 521.18 246.15 532.45C246.15 544.01 234.09 551.38 223.49 555.98C215.99 559.26 208.52 562.25 201.02 564.9Z" fill="url(#paint0_linear)"/>
<path fill-rule="evenodd" clip-rule="evenodd" d="M85.1602 153.94C136.72 77.9501 243.34 47.4399 329.77 76.0099C371.44 89.7899 406.37 118.49 438.58 148.29C466.98 174.55 494.53 202.87 513.92 236.63C527.16 259.67 536.64 287.3 543.33 313.08C553.33 351.7 544.25 401.45 494.33 397.8C482.62 396.95 472.49 392.74 461.54 389.05C452.68 386.07 444 387.86 434.8 386.4C411.65 382.73 389.34 374.21 368.25 364.23C325.27 343.86 286 316.19 241.79 298.34C205.57 283.74 166.88 276.2 127.82 276.13C111.35 276.1 94.0202 277.25 79.2802 269.88C42.9502 251.71 59.2902 202.69 72.8502 175.12C76.4502 167.78 80.5602 160.7 85.1602 153.94Z" fill="url(#paint1_linear)"/>
<path fill-rule="evenodd" clip-rule="evenodd" d="M489.44 165.41C497.93 173.09 531.29 194.08 531.93 169.45C532.08 163.32 529.3 157.36 525.51 152.87C521.18 147.71 516.26 145 512.88 138.99C508.74 131.74 504.02 124.92 498.8 118.62C488.12 105.52 475.65 93.4198 460.52 88.0198C449.9 84.2398 431.93 85.1896 426.89 98.7996C419.55 118.6 450.95 122.22 460.53 129.44C469.62 136.27 474.77 148.01 481.97 157.33C484.24 160.28 486.75 162.98 489.44 165.41Z" fill="url(#paint2_linear)"/>
<path fill-rule="evenodd" clip-rule="evenodd" d="M332.47 141.32C350.45 151.91 363.94 167.76 380.33 180.52C407.62 201.76 445.03 206.11 476.33 220.88C508.25 235.95 532.35 259.38 543.24 293.14C557.32 336.72 558.66 388.55 546.7 433.35C533.53 482.67 502.6 515.43 457.38 537.27C412.18 559.11 362.11 569.3 312.18 571.4C307.36 571.61 302.55 571.72 297.72 571.75C189.24 572.38 44.8501 534.19 7.91012 417.66C7.57012 416.59 7.25011 415.53 6.92011 414.45C3.12011 401.47 0.88011 388.07 0.26011 374.56C-2.05989 326.65 6.32011 273.76 23.1201 228.85C34.4201 198.61 58.7501 173.04 84.3801 154.82C120.4 129.23 164.35 122.69 208.09 119.62C240.48 117.35 276.91 116.52 307.54 128.91C316.15 132.42 324.48 136.57 332.47 141.32Z" fill="url(#paint3_linear)"/>
<path fill-rule="evenodd" clip-rule="evenodd" d="M112.54 538.31C153.1 562.85 268.97 601.84 408.02 561.41C443.75 551.3 516.12 516.36 533.5 457.45H525.34L412.36 494.99L303.73 473.33L169.03 480.55L87.9201 487.77L74.8901 509.43L112.54 538.31Z" fill="#F54A45"/>
<path fill-rule="evenodd" clip-rule="evenodd" d="M396.5 274C396.5 274 506.5 279 533 394.5C554 543.5 455.01 490.8 431.34 483.46C407.68 476.12 323.31 285.4 396.5 274Z" fill="#D9423D"/>
<path fill-rule="evenodd" clip-rule="evenodd" d="M120.57 506.31H456.56C456.56 506.31 468.33 313.12 425.52 284.85C382.72 256.59 182.56 262.49 138.19 286.63C93.8299 310.78 120.57 506.31 120.57 506.31Z" fill="#F54A45"/>
<path fill-rule="evenodd" clip-rule="evenodd" d="M171.96 257.76C171.58 257.76 171.2 257.66 170.85 257.45C169.82 256.85 145.81 242.12 152 204.23C154.17 190.98 156.8 181.43 159.13 172.99C163.33 157.81 166.36 146.84 163.91 124.75C163.78 123.54 164.65 122.46 165.85 122.33C167.05 122.25 168.13 123.07 168.27 124.27C170.8 147.2 167.51 159.1 163.36 174.16C161.06 182.48 158.45 191.92 156.32 204.94C150.6 239.91 172.85 253.55 173.08 253.69C174.12 254.3 174.46 255.64 173.84 256.68C173.44 257.38 172.71 257.76 171.96 257.76Z" fill="#000C3E"/>
<path fill-rule="evenodd" clip-rule="evenodd" d="M257.67 24.3997C259.37 39.4797 248.52 53.0798 233.44 54.7898C218.36 56.4898 204.76 45.6398 203.06 30.5598C201.36 15.4798 212.2 1.87968 227.28 0.169681C242.36 -1.52032 255.96 9.31966 257.67 24.3997Z" fill="#000C3E"/>
<path fill-rule="evenodd" clip-rule="evenodd" d="M168.26 247.55C168.26 247.55 178.71 262.78 212.14 263.65C245.56 264.51 269.33 248.88 295.83 254.2C322.33 259.51 356.85 242.16 362.45 230.51C368.05 218.87 348.88 102.16 326.11 85.55C303.33 68.93 197.04 68.25 178.01 94.59C158.98 120.93 152 236.54 168.26 247.55Z" fill="#000C3E"/>
<path fill-rule="evenodd" clip-rule="evenodd" d="M342.26 126.91C347.87 176.61 312.13 221.44 262.44 227.05C212.74 232.66 167.91 196.93 162.3 147.23C156.69 97.5401 192.42 52.6999 242.12 47.0899C291.81 41.4799 336.65 77.2203 342.26 126.91Z" fill="#000C3E"/>
<path fill-rule="evenodd" clip-rule="evenodd" d="M300.82 209.74C300.82 209.74 317.16 278.59 312.52 287.22C307.88 295.84 270.2 295.59 260.23 295.12C250.25 294.64 234.97 219.69 240.77 218.81C246.58 217.93 297.36 194.36 300.82 209.74Z" fill="#FFCEB0"/>
<path fill-rule="evenodd" clip-rule="evenodd" d="M178.67 144.75C178.67 144.75 198.76 252.88 272.95 246.47C347.14 240.07 323.93 86.9502 295.14 76.4102C266.36 65.8602 155.8 85.3501 178.67 144.75Z" fill="#FFCEB0"/>
<path fill-rule="evenodd" clip-rule="evenodd" d="M257.63 156.63C257.63 156.63 276.71 187.96 273.43 190.72C270.16 193.48 259.53 194.68 256.31 192.65C253.09 190.62 251.32 153.75 257.63 156.63Z" fill="#EE9B68"/>
<path fill-rule="evenodd" clip-rule="evenodd" d="M227.77 78.0601C227.77 78.0601 203.35 94.78 201.95 119.46C200.55 144.13 212.39 204.98 184.05 206.39C184.05 206.39 111.69 93.3501 227.77 78.0601Z" fill="#000C3E"/>
<path fill-rule="evenodd" clip-rule="evenodd" d="M241.73 76.4798C239.6 78.5498 269.14 74.02 289.14 91.95C309.13 109.89 320.88 160.47 323.63 161.03C326.39 161.58 327.1 95.6197 305.66 79.0697C284.21 62.5297 253.87 64.6898 241.73 76.4798Z" fill="#000C3E"/>
<path fill-rule="evenodd" clip-rule="evenodd" d="M245.1 240.55C245.1 240.55 276.14 252.49 303.53 232.81C303.53 232.81 308.6 250.71 306.92 255.27C305.25 259.83 258.69 269.93 246.3 250.59C246.3 250.59 242.29 240.05 245.1 240.55Z" fill="#EE9B68"/>
<path fill-rule="evenodd" clip-rule="evenodd" d="M317.96 166.35C317.96 166.35 320.88 138.08 334.61 145.91C348.35 153.74 341.54 183.85 329.8 188.26C318.06 192.67 313.37 181.39 317.96 166.35Z" fill="#FFCEB0"/>
<path fill-rule="evenodd" clip-rule="evenodd" d="M201.41 179.51C201.41 179.51 192.26 152.6 180.62 163.3C168.97 173.99 182.33 201.83 194.75 203.51C207.18 205.19 209.23 193.15 201.41 179.51Z" fill="#FFCEB0"/>
<path fill-rule="evenodd" clip-rule="evenodd" d="M282.57 137.22C282.57 137.22 293.53 127.19 303.88 134.78C312.99 141.45 295.46 138.7 289.96 141.31C284.46 143.91 276.68 145.43 282.57 137.22Z" fill="#41294A"/>
<path fill-rule="evenodd" clip-rule="evenodd" d="M232.02 146.83C232.02 146.83 218.98 139.7 210.74 149.54C203.49 158.19 219.84 151.34 225.81 152.56C231.78 153.79 239.69 153.41 232.02 146.83Z" fill="#41294A"/>
<path fill-rule="evenodd" clip-rule="evenodd" d="M230.67 202.03C218.36 202.03 208.03 192.8 206.66 180.55C205.16 167.3 214.73 155.29 227.98 153.79C241.47 152.22 253.26 161.97 254.74 175.12C255.47 181.54 253.65 187.86 249.62 192.91C245.59 197.97 239.83 201.15 233.41 201.88C232.49 201.98 231.57 202.03 230.67 202.03ZM230.73 156.55C229.93 156.55 229.13 156.59 228.32 156.68C216.66 158.01 208.24 168.57 209.55 180.22C210.87 191.78 221.33 200.31 233.08 198.98C238.73 198.34 243.79 195.54 247.34 191.1C250.88 186.65 252.48 181.09 251.84 175.45C250.62 164.67 241.55 156.55 230.73 156.55Z" fill="white"/>
<path fill-rule="evenodd" clip-rule="evenodd" d="M289.85 189.66C277.54 189.66 267.22 180.43 265.84 168.18C265.12 161.75 266.94 155.43 270.96 150.38C274.99 145.33 280.76 142.14 287.17 141.42C300.58 139.86 312.45 149.59 313.93 162.75C314.66 169.17 312.84 175.49 308.81 180.55C304.78 185.6 299.02 188.78 292.6 189.5C291.68 189.61 290.76 189.66 289.85 189.66ZM289.93 144.18C289.12 144.18 288.32 144.23 287.5 144.32C281.85 144.96 276.79 147.75 273.25 152.2C269.7 156.65 268.11 162.2 268.74 167.85C270.05 179.42 280.52 187.93 292.27 186.61C297.92 185.97 302.98 183.17 306.53 178.73C310.07 174.28 311.67 168.72 311.03 163.07C309.81 152.31 300.75 144.18 289.93 144.18Z" fill="white"/>
<path fill-rule="evenodd" clip-rule="evenodd" d="M208.08 176.94C207.97 176.94 207.86 176.93 207.75 176.9L198.48 174.77C197.7 174.59 197.21 173.81 197.39 173.02C197.57 172.24 198.37 171.73 199.13 171.93L208.4 174.06C209.19 174.24 209.68 175.03 209.5 175.81C209.34 176.49 208.74 176.94 208.08 176.94Z" fill="white"/>
<path fill-rule="evenodd" clip-rule="evenodd" d="M310.61 157.56C310.05 157.56 309.52 157.24 309.28 156.7C308.94 155.97 309.27 155.1 310 154.77L321.64 149.45C322.34 149.11 323.23 149.44 323.57 150.18C323.9 150.91 323.58 151.78 322.84 152.11L311.21 157.43C311.02 157.52 310.81 157.56 310.61 157.56Z" fill="white"/>
<path fill-rule="evenodd" clip-rule="evenodd" d="M235.82 71.0098C235.82 71.0098 248.03 129.42 265.08 132.31C282.12 135.21 321.83 127.71 322.78 120.98C323.73 114.24 283.02 67.3599 258.16 62.6099C214.58 54.2699 189.02 126.95 196.19 142.45C203.36 157.96 236.78 138.4 244.05 135.17C251.32 131.93 236.07 82.8798 235.82 71.0098Z" fill="#000C3E"/>
<path fill-rule="evenodd" clip-rule="evenodd" d="M253.11 175.48C252.44 175.48 251.84 175.02 251.69 174.35C251.51 173.56 251.99 172.78 252.78 172.6L267.41 169.2C268.23 168.99 268.99 169.51 269.16 170.29C269.34 171.07 268.86 171.86 268.07 172.04L253.44 175.44C253.32 175.46 253.22 175.48 253.11 175.48Z" fill="white"/>
<path fill-rule="evenodd" clip-rule="evenodd" d="M217.17 57.26C216.93 57.26 216.7 57.2203 216.47 57.1403C207.9 54.2403 202.3 49.2502 199.82 42.2902C194.38 27.0102 206.12 7.98039 206.63 7.18039C207.27 6.15039 208.61 5.84044 209.65 6.49044C210.67 7.13044 210.98 8.48021 210.34 9.50021C210.23 9.68021 199.21 27.5603 203.95 40.8303C205.96 46.4503 210.65 50.5502 217.87 53.0002C219.01 53.3802 219.63 54.6302 219.24 55.7702C218.94 56.6802 218.08 57.26 217.17 57.26Z" fill="#000C3E"/>
<path fill-rule="evenodd" clip-rule="evenodd" d="M249.23 57.37C248.72 57.37 248.2 57.1897 247.78 56.8197C246.88 56.0197 246.79 54.6298 247.59 53.7298C247.73 53.5698 261.53 37.7397 259.05 23.8797C257.98 17.9897 254.04 13.1897 247.32 9.58968C246.25 9.00968 245.85 7.68972 246.42 6.62972C246.99 5.54972 248.33 5.17005 249.38 5.72005C257.35 10.0001 262.05 15.8497 263.35 23.1097C266.21 39.0697 251.5 55.9197 250.87 56.6297C250.44 57.1197 249.84 57.37 249.23 57.37Z" fill="#000C3E"/>
<path fill-rule="evenodd" clip-rule="evenodd" d="M354.41 228.33C353.87 228.33 353.32 228.13 352.9 227.72C352.03 226.89 351.99 225.51 352.83 224.62C353.48 223.93 368.89 207.31 360.75 184.45C357.57 175.5 352.73 165.79 347.61 155.51C338.69 137.58 329.45 119.05 326.51 100.25C326.32 99.0499 327.13 97.9299 328.33 97.7499C329.53 97.4899 330.65 98.3697 330.83 99.5697C333.67 117.7 342.75 135.93 351.54 153.56C356.71 163.96 361.61 173.78 364.88 182.98C373.94 208.44 356.73 226.87 355.99 227.65C355.56 228.1 354.99 228.33 354.41 228.33Z" fill="#000C3E"/>
<path fill-rule="evenodd" clip-rule="evenodd" d="M346.72 128.5C345.54 128.5 344.56 127.56 344.53 126.38C343.86 102.12 336.37 83.3399 322.28 70.5299C299.59 49.9199 267.15 51.85 266.84 51.88C265.5 52.04 264.59 51.0499 264.51 49.8399C264.42 48.6399 265.34 47.5999 266.55 47.5099C267.94 47.4199 301.16 45.4299 325.23 67.2999C340.24 80.9299 348.2 100.76 348.91 126.25C348.94 127.46 347.99 128.47 346.78 128.5H346.72Z" fill="#000C3E"/>
<path fill-rule="evenodd" clip-rule="evenodd" d="M268.52 226.5C265.98 226.5 264.17 226.05 264.02 226.01C262.84 225.71 262.14 224.53 262.43 223.36C262.72 222.2 263.9 221.49 265.08 221.76C265.14 221.78 271.41 223.27 276.17 219.94C277.17 219.25 278.53 219.49 279.21 220.47C279.91 221.46 279.67 222.83 278.68 223.52C275.26 225.92 271.42 226.5 268.52 226.5Z" fill="#EE9B68"/>
<path fill-rule="evenodd" clip-rule="evenodd" d="M195.98 196.39C195.88 196.39 195.77 196.38 195.66 196.36C194.46 196.19 193.64 195.07 193.82 193.88C195.8 180.35 185.08 173.18 184.97 173.12C183.96 172.45 183.68 171.1 184.34 170.08C184.99 169.06 186.35 168.78 187.37 169.44C187.9 169.79 200.54 178.24 198.15 194.52C197.99 195.6 197.06 196.39 195.98 196.39Z" fill="#EE9B68"/>
<path fill-rule="evenodd" clip-rule="evenodd" d="M325.3 183.34C324.15 183.34 323.19 182.44 323.12 181.28C322.09 164.84 328.85 155.07 329.13 154.67C329.82 153.69 331.19 153.44 332.18 154.14C333.17 154.83 333.41 156.2 332.72 157.19C332.65 157.27 326.57 166.2 327.48 181.01C327.56 182.22 326.64 183.25 325.43 183.33C325.39 183.34 325.35 183.34 325.3 183.34Z" fill="#EE9B68"/>
<path fill-rule="evenodd" clip-rule="evenodd" d="M204.75 291.15C204.75 291.15 254.46 350.58 292.8 334.68C331.13 318.78 367.05 275.67 347.78 269.95C328.5 264.22 174.61 267.24 204.75 291.15Z" fill="#FFCEB0"/>
<path fill-rule="evenodd" clip-rule="evenodd" d="M242.17 177.85C242.72 181.47 240.23 184.84 236.61 185.39C232.99 185.93 229.61 183.45 229.06 179.83C228.52 176.21 231.01 172.83 234.63 172.28C238.25 171.74 241.62 174.23 242.17 177.85Z" fill="#41294A"/>
<path fill-rule="evenodd" clip-rule="evenodd" d="M304.33 165.89C304.88 169.51 302.39 172.89 298.77 173.44C295.15 173.98 291.78 171.49 291.23 167.87C290.68 164.25 293.17 160.88 296.79 160.33C300.41 159.79 303.79 162.27 304.33 165.89Z" fill="#41294A"/>
<path fill-rule="evenodd" clip-rule="evenodd" d="M252.99 218.53C252.64 218.53 252.3 218.45 251.98 218.29C250.92 217.73 250.49 216.42 251.04 215.34C251.36 214.73 258.91 200.31 271.07 198.95C277.98 198.18 284.71 201.71 291.18 209.42C291.95 210.35 291.83 211.73 290.91 212.51C289.98 213.3 288.61 213.16 287.82 212.24C282.35 205.72 276.91 202.69 271.56 203.31C261.74 204.39 255 217.21 254.93 217.35C254.55 218.1 253.78 218.53 252.99 218.53Z" fill="#EE9B68"/>
<path d="M376.88 548C318.57 548 271.44 500.87 271.44 442.56C271.44 384.26 318.57 337.12 376.88 337.12C435.19 337.12 482.32 384.26 482.32 442.56C482.32 500.87 435.19 548 376.88 548Z" fill="white"/>
<path fill-rule="evenodd" clip-rule="evenodd" d="M322.81 395.5C322.81 395.5 366.88 454.35 377.9 459.21C388.93 464.08 402.75 462.98 403.96 468.63C405.17 474.28 380.82 464.72 384.7 473.44C388.59 482.15 403.73 492.1 403.8 500.87C403.87 509.65 379.71 482.03 379.71 482.03C379.71 482.03 402.48 507.3 394.94 507.89C387.39 508.49 367.89 483.79 367.89 483.79C367.89 483.79 389.71 516.19 382.48 513.23C375.25 510.28 308.21 432.75 297.87 424.55C287.53 416.35 322.81 395.5 322.81 395.5Z" fill="#E27B5A"/>
<path fill-rule="evenodd" clip-rule="evenodd" d="M451 409.79C451 409.79 400.74 463.42 389.25 467.04C377.75 470.67 364.13 468.06 362.31 473.53C360.49 479.01 385.74 472.2 380.92 480.43C376.11 488.66 359.97 496.88 358.93 505.6C357.9 514.31 384.95 489.53 384.95 489.53C384.95 489.53 359.54 512.13 366.97 513.55C374.4 514.98 396.5 492.58 396.5 492.58C396.5 492.58 371.25 522.38 378.76 520.24C386.27 518.09 461.43 448.42 472.6 441.4C483.78 434.39 451 409.79 451 409.79Z" fill="#F8B38A"/>
<path fill-rule="evenodd" clip-rule="evenodd" d="M408.21 447.03C408.21 447.03 423.67 476.3 437.89 479.42C452.1 482.53 474.65 459.95 481.35 446.18C488.05 432.42 473.08 391.39 459.64 377.44C449.54 376.21 401.05 420.93 408.21 447.03Z" fill="#F54A45"/>
<path fill-rule="evenodd" clip-rule="evenodd" d="M309.23 361.93C309.23 361.93 363.14 417.21 360.73 430.23C358.32 443.24 338.9 458.83 323.25 463.93C307.59 469.04 272.02 448.25 272.02 433.26C273.57 404.83 289.59 377.96 309.23 361.93Z" fill="#128E5A"/>
<path fill-rule="evenodd" clip-rule="evenodd" d="M128.91 425.96C128.91 425.96 247.77 490.91 269.99 490.65C292.21 490.38 314.57 477.98 320.91 486.52C327.24 495.06 279.09 497.65 292.26 509.29C305.43 520.93 338.42 526.03 345.24 540.69C352.06 555.34 290.43 527.52 290.43 527.52C290.43 527.52 347.93 552.47 335.73 559.23C323.53 566 271.95 539.5 271.95 539.5C271.95 539.5 333.29 577.14 318.9 577.7C304.51 578.27 132.83 499.55 109.23 493.7C85.6099 487.85 128.91 425.96 128.91 425.96Z" fill="#FFC6A6"/>
<path fill-rule="evenodd" clip-rule="evenodd" d="M220.61 422.25C220.61 422.25 222.03 477.41 209.37 498.46C179.24 548.5 97.79 542.4 73.5 506.5C49.21 470.6 102.32 289.36 138.19 286.63C174.06 283.91 220.61 370 220.61 422.25Z" fill="#D9423D"/>
<path fill-rule="evenodd" clip-rule="evenodd" d="M247.05 52.0296C246.21 52.0296 245.42 51.5799 245.01 50.8299C243.23 47.6399 227.77 19.2598 233.47 6.89975C234.85 3.92975 237.36 1.99993 240.73 1.32993C246.47 0.179927 249.77 2.29963 251.53 4.27963C260.69 14.6296 250.46 46.8 249.27 50.43C248.98 51.31 248.2 51.9299 247.27 52.0199C247.2 52.0299 247.12 52.0296 247.05 52.0296ZM243.83 5.66977C243.16 5.66977 242.43 5.74975 241.64 5.89975C239.71 6.28975 238.46 7.22995 237.71 8.84995C234.37 16.0999 241.42 33.3396 246.46 43.5296C249.57 32.2296 253.31 13.3297 248.03 7.37973C247.02 6.23973 245.63 5.66977 243.83 5.66977Z" fill="#FFD310"/>
<path fill-rule="evenodd" clip-rule="evenodd" d="M247.7 52.1803C247.07 52.1803 246.45 51.9301 246.01 51.4601C245.37 50.7901 245.18 49.8003 245.54 48.9503C247.01 45.4203 260.32 14.3999 274.02 12.5699C276.65 12.2199 280.53 12.77 284.12 17.4C286.23 20.11 286.87 23.21 285.96 26.36C282.19 39.44 251.93 50.7902 248.5 52.0402C248.23 52.1402 247.97 52.1803 247.7 52.1803ZM275.31 17.15C275.09 17.15 274.86 17.1703 274.64 17.2003C266.75 18.2503 257.22 34.9799 252.18 45.5699C262.65 41.1599 279.27 32.7299 281.48 25.0699C281.97 23.3399 281.64 21.8199 280.44 20.2599C278.81 18.1799 277.13 17.15 275.31 17.15Z" fill="#FFD310"/>
<path d="M203.87 43.9302C215.21 51.2202 241.13 56.8902 261.38 43.9302" stroke="#FFD310" stroke-width="4.87"/>
</g>
<defs>
<linearGradient id="paint0_linear" x1="0.686136" y1="468.85" x2="62.312" y2="572.463" gradientUnits="userSpaceOnUse">
<stop stop-color="#FFCCCC"/>
<stop offset="1" stop-color="#FFEEEE"/>
</linearGradient>
<linearGradient id="paint1_linear" x1="609.486" y1="165.309" x2="227.478" y2="159.7" gradientUnits="userSpaceOnUse">
<stop stop-color="white"/>
<stop offset="1" stop-color="#FFCECE"/>
</linearGradient>
<linearGradient id="paint2_linear" x1="532.492" y1="168.202" x2="411.488" y2="108.427" gradientUnits="userSpaceOnUse">
<stop stop-color="#FFD1D1"/>
<stop offset="1" stop-color="#FFFBFC"/>
</linearGradient>
<linearGradient id="paint3_linear" x1="505.314" y1="522.454" x2="0.324173" y2="230.017" gradientUnits="userSpaceOnUse">
<stop stop-color="#FFCDCD"/>
<stop offset="1" stop-color="#FFF3F3"/>
</linearGradient>
<clipPath id="clip0">
<rect width="555" height="587" fill="white"/>
</clipPath>
</defs>
</svg>
