<svg width="50" height="50" viewBox="0 0 50 50" fill="none" xmlns="http://www.w3.org/2000/svg">
<path fill-rule="evenodd" clip-rule="evenodd" d="M22.8304 0.0588399C20.0143 0.329117 17.6399 0.91718 15.2012 1.94841C11.185 3.64663 7.6521 6.39972 5.00593 9.89315C2.65492 12.9969 1.07512 16.5864 0.358089 20.4535C0.0556849 22.0846 0.000843124 22.7719 1.38629e-05 24.9453C-0.000870682 27.1079 0.039929 27.6768 0.308499 29.2442C0.985784 33.1973 2.64237 36.9964 5.07642 40.1788C6.39876 41.9076 8.18924 43.6802 9.94921 45.003C12.2096 46.7019 14.8489 48.0481 17.5601 48.8849C23.7725 50.8024 30.5518 50.2298 36.3324 47.2994C40.0723 45.4034 43.3677 42.498 45.7371 39.0075C48.1359 35.4738 49.5778 31.3637 49.9455 27.0121C50.0179 26.1548 50.0182 23.8915 49.946 22.983C49.8095 21.2642 49.5282 19.7287 49.0337 18.001C47.1305 11.352 42.4267 5.71333 36.1857 2.59919C33.5504 1.28429 30.822 0.482884 27.723 0.113623C26.6964 -0.00872944 23.8649 -0.0404198 22.8304 0.0588399ZM31.2612 13.7297V16.072H29.8893C29.1347 16.072 28.3697 16.0987 28.1893 16.1314C27.7419 16.2123 27.4199 16.4088 27.2668 16.6944C27.1469 16.9181 27.1419 16.9858 27.1258 18.621L27.109 20.3157H29.2128H31.3165L31.3178 20.4398C31.3185 20.508 31.2138 21.562 31.0851 22.7821L30.8512 25.0004H28.9833H27.1154L27.1013 31.7932L27.0873 38.5859L24.2263 38.6002L21.3654 38.6145V31.8074V25.0004H19.9556H18.5459V22.6581V20.3157H19.9488H21.3517L21.3805 18.3179C21.4106 16.2365 21.4506 15.8089 21.699 14.9146C21.9598 13.9755 22.5711 13.0325 23.2513 12.5197C23.9698 11.9781 25.0603 11.5702 26.1112 11.4501C26.344 11.4235 27.598 11.3985 28.8978 11.3946L31.2612 11.3873V13.7297Z" fill="#FA5652"/>
</svg>
