<svg width="50" height="50" viewBox="0 0 50 50" fill="none" xmlns="http://www.w3.org/2000/svg">
<path fill-rule="evenodd" clip-rule="evenodd" d="M22.3989 0.0808115C16.5094 0.721333 10.9088 3.48061 6.85801 7.73764C3.15427 11.63 0.86853 16.4915 0.126271 22.0551C-0.0641411 23.4822 -0.0344913 26.7273 0.183429 28.3126C1.19265 35.6527 5.2045 41.9659 11.4659 46.0667C12.8266 46.9579 15.4997 48.24 17.0606 48.7501C19.961 49.6979 22.7028 50.0841 25.8289 49.9849C29.6249 49.8645 32.8256 49.0635 36.1528 47.4012C43.5649 43.6984 48.5906 36.7097 49.7991 28.4253C50.0648 26.6036 50.0673 23.2722 49.8043 21.4406C48.2429 10.5676 39.9431 2.1273 28.994 0.277557C27.4621 0.0188 23.9366 -0.0863938 22.3989 0.0808115ZM32.4325 11.9635C32.8665 12.0542 33.6936 12.3613 34.2705 12.6461C36.1507 13.5742 37.4151 15.1266 38.0351 17.2683C38.2938 18.1616 38.2948 18.1933 38.2948 25.1556C38.2948 33.0552 38.2922 33.0843 37.4279 34.811C36.6028 36.4597 35.198 37.6968 33.4364 38.3259C32.0074 38.8361 31.3336 38.8731 24.259 38.8282C17.7902 38.7872 17.6478 38.7814 16.8202 38.5309C15.4716 38.1224 14.4947 37.5472 13.543 36.6008C12.5326 35.5961 11.9674 34.5896 11.6353 33.2044C11.4209 32.3102 11.4086 31.8808 11.4078 25.3146C11.4071 18.7424 11.4191 18.3226 11.6324 17.4786C12.3576 14.609 14.441 12.5897 17.3257 11.9605C18.3674 11.7332 31.3415 11.7359 32.4325 11.9635ZM18.1657 14.2789C16.1197 14.5911 14.749 15.6902 14.0924 17.5451C13.835 18.2726 13.8327 18.3263 13.7979 24.7684C13.7599 31.8122 13.7859 32.2009 14.3825 33.5042C14.9401 34.7224 16.1864 35.7025 17.6687 36.0887C18.6413 36.342 31.1022 36.3459 32.0725 36.0931C33.4748 35.7278 34.5836 34.91 35.1711 33.8078C35.8682 32.4997 35.8709 32.4664 35.8709 25.3515C35.8709 18.1323 35.8502 17.8916 35.1239 16.6818C34.4337 15.532 33.6477 14.9042 32.3477 14.4643C31.6664 14.2337 31.4323 14.2252 25.2173 14.2048C21.683 14.193 18.5098 14.2265 18.1657 14.2789ZM32.917 16.6012C33.3264 16.865 33.6153 17.4362 33.6157 17.9828C33.6165 18.9094 32.9258 19.5752 31.9645 19.5741C30.5735 19.5728 29.8806 17.7992 30.8923 16.8297C31.4484 16.2969 32.2963 16.2013 32.917 16.6012ZM26.5449 18.5115C28.8983 19.1215 30.7069 20.8527 31.5424 23.2953C31.8396 24.1641 31.8405 26.255 31.5441 27.1287C30.7078 29.5935 28.8942 31.3031 26.4619 31.9194C25.6052 32.1364 24.0711 32.1349 23.1433 31.9163C21.5792 31.5475 19.7522 30.2163 18.9121 28.8331C17.7193 26.8694 17.5665 24.4148 18.5078 22.3369C19.3346 20.5116 21.0763 19.0383 23.0271 18.5138C23.8564 18.2907 25.6886 18.2896 26.5449 18.5115ZM23.765 20.8275C23.0657 20.9916 22.0421 21.5943 21.5434 22.1352C21.2904 22.4099 20.9226 22.9736 20.7264 23.3877C20.4038 24.0688 20.3696 24.2434 20.3696 25.212C20.3696 26.1826 20.4033 26.3544 20.7296 27.0431C21.3864 28.4298 22.6362 29.3747 24.1323 29.6157C26.0304 29.9214 28.0181 28.8389 28.861 27.0405C29.1285 26.4696 29.1631 26.2604 29.1631 25.212C29.1631 24.1176 29.1365 23.9728 28.8108 23.2953C27.8932 21.3868 25.7817 20.354 23.765 20.8275Z" fill="#035755"/>
</svg>
