<svg width="50" height="50" viewBox="0 0 50 50" fill="none" xmlns="http://www.w3.org/2000/svg">
<path fill-rule="evenodd" clip-rule="evenodd" d="M22.6603 0.0586755C17.795 0.529334 12.9726 2.50737 9.19115 5.58338C8.07887 6.4882 6.31777 8.2631 5.43067 9.3736C3.18761 12.1813 1.3495 15.9792 0.587163 19.3807C0.108429 21.5174 0 22.556 0 25.0071C0 27.4581 0.108429 28.4968 0.587163 30.6334C1.36613 34.1092 3.2522 37.9613 5.56982 40.8098C6.47474 41.922 8.24983 43.6829 9.36045 44.5699C12.1685 46.8127 15.9667 48.6507 19.3686 49.4129C21.5055 49.8916 22.5443 50 24.9956 50C27.4469 50 28.4857 49.8916 30.6226 49.4129C33.1804 48.8398 36.5247 47.4108 38.7225 45.952C42.5342 43.4216 45.4616 40.0925 47.4604 36.0152C48.6848 33.5176 49.3802 31.2807 49.8182 28.4318C50.0606 26.8555 50.0606 23.1587 49.8182 21.5823C49.3802 18.7334 48.6848 16.4966 47.4604 13.999C46.1539 11.3337 44.6976 9.30608 42.595 7.22511C40.5308 5.182 38.6398 3.8394 36.0049 2.54602C33.5368 1.33444 31.2518 0.619943 28.5186 0.204961C27.2895 0.0183613 23.941 -0.0653004 22.6603 0.0586755ZM34.3149 10.6954C35.3326 11.0443 36.0889 11.4793 36.8045 12.1275C37.3014 12.5775 37.3535 12.6008 37.7306 12.5404C38.4226 12.4298 40.1779 11.8172 41.0936 11.3668C41.5781 11.1285 41.9909 10.95 42.0111 10.97C42.0767 11.0351 41.7215 11.832 41.3648 12.4203C40.9449 13.1126 39.9911 14.1511 39.404 14.555C39.1685 14.717 38.9956 14.8692 39.0197 14.8933C39.1091 14.9828 41.0816 14.5211 41.9771 14.201C42.487 14.0188 42.9041 13.9145 42.9041 13.9692C42.9041 14.2709 41.2092 16.1486 40.2106 16.9534L39.384 17.6194L39.3826 18.8147C39.3747 25.1824 35.9659 31.9184 30.8286 35.7172C28.5498 37.4022 25.6593 38.6867 22.8916 39.2441C21.0611 39.6128 19.7081 39.7178 17.6177 39.6533C14.6921 39.563 12.4511 39.073 9.89907 37.9655C8.89796 37.5311 7.08686 36.5642 7.08754 36.4646C7.08774 36.4327 7.89146 36.4028 8.87349 36.3982C10.859 36.3889 11.9134 36.2223 13.5154 35.6651C15.1418 35.0993 17.6071 33.7351 17.6071 33.4008C17.6071 33.3214 17.4101 33.2533 17.0689 33.215C14.5834 32.9362 12.2906 31.224 11.249 28.8689C11.1129 28.5613 11.0017 28.2821 11.0018 28.2485C11.0019 28.2148 11.6293 28.1872 12.3963 28.1872C13.321 28.1872 13.8565 28.147 13.9863 28.0678C14.1668 27.9578 14.168 27.9483 14.0027 27.9455C13.9039 27.9439 13.4888 27.8087 13.0802 27.6451C10.4985 26.6114 8.61915 24.1149 8.39094 21.4158C8.35777 21.023 8.34808 20.7019 8.36941 20.702C8.39075 20.7022 8.73492 20.8354 9.13429 20.9982C9.76588 21.2555 11.381 21.627 11.4721 21.5359C11.4897 21.5182 11.1557 21.1582 10.7298 20.7358C9.61263 19.6279 8.93456 18.4582 8.60898 17.0769C8.393 16.1605 8.41247 14.5476 8.65086 13.6155C8.84815 12.8442 9.31592 11.6918 9.42474 11.709C9.45772 11.7143 9.84065 12.1215 10.2756 12.6141C13.0996 15.8116 17.4242 18.2139 21.913 19.0784C22.6839 19.2269 24.6187 19.4477 24.673 19.3934C24.6882 19.3782 24.6547 18.9978 24.5983 18.5482C24.208 15.4362 25.9449 12.3647 28.8684 10.9967C30.0016 10.4666 30.7384 10.3269 32.1883 10.3672C33.2896 10.3978 33.5753 10.4418 34.3149 10.6954Z" fill="#035755"/>
</svg>
